<?xml version="1.0" encoding="UTF-8"?>
<svg id="Camada_2" data-name="Camada 2" xmlns="http://www.w3.org/2000/svg" viewBox="0 0 1898.91 710.8">
  <g id="Camada_1-2" data-name="Camada 1" fill="white">
    <g>
      <path d="m187.76,98.43c-1.28-12.87-6.75-22.86-16.43-29.99-9.68-7.12-22.81-10.69-39.4-10.69-11.27,0-20.79,1.57-28.55,4.71-7.76,3.14-13.69,7.47-17.79,13-4.09,5.53-6.14,11.81-6.14,18.82-.21,5.85,1.04,10.96,3.75,15.31,2.71,4.36,6.46,8.11,11.25,11.25,4.79,3.14,10.31,5.85,16.59,8.14,6.27,2.29,12.97,4.23,20.1,5.82l29.35,7.02c14.25,3.19,27.33,7.45,39.24,12.76,11.91,5.32,22.23,11.86,30.95,19.62,8.72,7.76,15.5,16.91,20.34,27.44,4.84,10.53,7.31,22.6,7.42,36.21-.11,20-5.18,37.3-15.24,51.93-10.05,14.62-24.51,25.95-43.39,33.98-18.88,8.03-41.61,12.04-68.2,12.04s-49.32-4.04-68.84-12.12c-19.52-8.08-34.73-20.07-45.62-35.97C6.25,271.81.53,252.11,0,228.6h66.84c.74,10.96,3.91,20.08,9.49,27.36,5.58,7.29,13.08,12.76,22.49,16.43,9.41,3.67,20.07,5.5,31.99,5.5s21.88-1.7,30.55-5.1c8.67-3.4,15.39-8.14,20.18-14.2s7.18-13.03,7.18-20.9c0-7.34-2.15-13.51-6.46-18.51-4.31-5-10.58-9.25-18.82-12.76-8.24-3.51-18.32-6.7-30.23-9.57l-35.57-8.93c-27.55-6.7-49.29-17.17-65.25-31.43-15.95-14.25-23.88-33.45-23.77-57.59-.11-19.78,5.18-37.06,15.87-51.85,10.69-14.78,25.39-26.32,44.11-34.62C87.31,4.15,108.58,0,132.41,0s45.44,4.15,63.57,12.44c18.13,8.3,32.25,19.84,42.35,34.62,10.1,14.78,15.31,31.91,15.63,51.37h-66.2Z"/>
      <path d="m438.09,226.85V86.15h67.96v245.03h-65.25v-44.51h-2.55c-5.53,14.36-14.7,25.9-27.52,34.62-12.82,8.72-28.42,13.08-46.82,13.08-16.38,0-30.79-3.72-43.23-11.17-12.44-7.44-22.15-18.03-29.11-31.75-6.97-13.72-10.5-30.15-10.61-49.29V86.15h67.96v143.89c.1,14.46,3.99,25.9,11.65,34.3,7.66,8.4,17.92,12.6,30.79,12.6,8.19,0,15.85-1.89,22.97-5.66,7.12-3.77,12.89-9.38,17.31-16.83,4.41-7.44,6.57-16.64,6.46-27.6Z"/>
      <path d="m607.69,335.81c-15.63,0-29.57-2.74-41.8-8.22-12.23-5.48-21.88-13.61-28.95-24.41-7.07-10.79-10.61-24.27-10.61-40.44,0-13.61,2.5-25.05,7.5-34.3,5-9.25,11.8-16.7,20.42-22.33,8.61-5.64,18.43-9.89,29.43-12.76,11.01-2.87,22.57-4.89,34.7-6.06,14.25-1.49,25.74-2.9,34.46-4.23,8.72-1.33,15.05-3.32,18.98-5.98,3.93-2.66,5.9-6.59,5.9-11.81v-.96c0-10.1-3.17-17.92-9.49-23.45-6.33-5.53-15.29-8.3-26.88-8.3-12.23,0-21.96,2.69-29.19,8.06-7.23,5.37-12.02,12.1-14.36,20.18l-62.85-5.1c3.19-14.89,9.46-27.78,18.82-38.69,9.36-10.9,21.46-19.3,36.29-25.21,14.84-5.9,32.04-8.85,51.61-8.85,13.61,0,26.67,1.6,39.16,4.79,12.5,3.19,23.61,8.14,33.34,14.84,9.73,6.7,17.41,15.29,23.05,25.76,5.64,10.48,8.46,23,8.46,37.57v165.27h-64.45v-33.98h-1.92c-3.94,7.66-9.2,14.39-15.79,20.18-6.6,5.8-14.52,10.32-23.77,13.56-9.25,3.24-19.94,4.87-32.06,4.87Zm19.46-46.9c10,0,18.82-1.99,26.48-5.98,7.66-3.99,13.67-9.38,18.03-16.19,4.36-6.8,6.54-14.52,6.54-23.13v-26c-2.13,1.38-5.03,2.63-8.69,3.75s-7.79,2.13-12.36,3.03c-4.57.9-9.15,1.7-13.72,2.39-4.57.69-8.72,1.3-12.44,1.83-7.98,1.17-14.94,3.03-20.9,5.58-5.96,2.55-10.58,5.98-13.88,10.29-3.3,4.31-4.95,9.65-4.95,16.03,0,9.25,3.38,16.3,10.13,21.14,6.75,4.84,15.34,7.26,25.76,7.26Z"/>
      <path d="m10.53,706.01v-326.71h130.81c24.03,0,44.08,3.56,60.14,10.69,16.06,7.13,28.13,16.99,36.21,29.59,8.08,12.6,12.12,27.09,12.12,43.47,0,12.76-2.55,23.96-7.66,33.58-5.1,9.63-12.1,17.5-20.98,23.61-8.88,6.12-19.01,10.45-30.39,13v3.19c12.44.53,24.11,4.04,35.02,10.53,10.9,6.49,19.75,15.55,26.56,27.2,6.8,11.65,10.21,25.5,10.21,41.56,0,17.34-4.28,32.78-12.84,46.34-8.56,13.56-21.19,24.28-37.89,32.15-16.7,7.87-37.28,11.8-61.74,11.8H10.53Zm69.08-190h51.21c9.46,0,17.89-1.67,25.29-5.03,7.39-3.35,13.24-8.11,17.55-14.28,4.31-6.17,6.46-13.56,6.46-22.17,0-11.8-4.17-21.32-12.52-28.55-8.35-7.23-20.18-10.85-35.5-10.85h-52.48v80.88Zm0,133.52h56.31c19.25,0,33.29-3.69,42.12-11.09,8.83-7.39,13.24-17.25,13.24-29.59,0-9.04-2.18-17.01-6.54-23.93-4.36-6.91-10.56-12.34-18.58-16.27-8.03-3.93-17.58-5.9-28.63-5.9h-57.91v86.78Z"/>
      <path d="m353.54,710.64c-15.63,0-29.57-2.74-41.8-8.22-12.23-5.48-21.88-13.61-28.95-24.41-7.07-10.79-10.61-24.27-10.61-40.44,0-13.61,2.5-25.05,7.5-34.3,5-9.25,11.8-16.7,20.42-22.33,8.61-5.64,18.43-9.89,29.43-12.76,11.01-2.87,22.57-4.89,34.7-6.06,14.25-1.49,25.74-2.9,34.46-4.23,8.72-1.33,15.05-3.32,18.98-5.98,3.93-2.66,5.9-6.59,5.9-11.8v-.96c0-10.1-3.17-17.92-9.49-23.45-6.33-5.53-15.29-8.29-26.88-8.29-12.23,0-21.96,2.69-29.19,8.06-7.23,5.37-12.02,12.1-14.36,20.18l-62.85-5.11c3.19-14.89,9.46-27.78,18.82-38.69,9.36-10.9,21.46-19.3,36.29-25.21s32.04-8.85,51.61-8.85c13.61,0,26.67,1.59,39.16,4.79,12.5,3.19,23.61,8.14,33.34,14.84,9.73,6.7,17.41,15.29,23.05,25.76,5.64,10.48,8.46,23,8.46,37.57v165.27h-64.45v-33.98h-1.92c-3.94,7.66-9.2,14.38-15.79,20.18-6.6,5.8-14.52,10.32-23.77,13.56s-19.94,4.87-32.06,4.87Zm19.46-46.9c10,0,18.82-1.99,26.48-5.98s13.67-9.38,18.03-16.19c4.36-6.8,6.54-14.52,6.54-23.13v-26c-2.13,1.38-5.03,2.63-8.69,3.75-3.67,1.12-7.79,2.13-12.36,3.03-4.57.91-9.15,1.7-13.72,2.39-4.57.69-8.72,1.3-12.44,1.83-7.98,1.17-14.94,3.03-20.9,5.58-5.96,2.55-10.58,5.98-13.88,10.29-3.3,4.31-4.95,9.65-4.95,16.03,0,9.25,3.38,16.3,10.13,21.14,6.75,4.84,15.34,7.26,25.76,7.26Z"/>
      <path d="m521.87,706.01v-245.03h65.88v42.75h2.55c4.47-15.21,11.96-26.72,22.49-34.54,10.53-7.82,22.65-11.73,36.37-11.73,3.4,0,7.07.21,11.01.64,3.93.43,7.39,1.01,10.37,1.75v60.3c-3.19-.96-7.6-1.81-13.24-2.55-5.64-.74-10.8-1.12-15.47-1.12-10,0-18.9,2.15-26.72,6.46-7.82,4.31-13.99,10.29-18.5,17.95-4.52,7.66-6.78,16.49-6.78,26.48v138.63h-67.96Z"/>
      <path d="m684.29,706.01v-326.71h67.96v122.84h2.07c2.98-6.59,7.31-13.32,13-20.18,5.69-6.86,13.13-12.6,22.33-17.23,9.2-4.63,20.66-6.94,34.38-6.94,17.87,0,34.35,4.65,49.45,13.96,15.1,9.31,27.17,23.29,36.21,41.96,9.04,18.67,13.56,42.04,13.56,70.11s-4.39,50.39-13.16,69.16c-8.77,18.77-20.69,32.97-35.73,42.59-15.05,9.63-31.88,14.44-50.49,14.44-13.19,0-24.38-2.18-33.58-6.54-9.2-4.36-16.73-9.86-22.57-16.51-5.85-6.65-10.32-13.37-13.4-20.18h-3.03v39.24h-67Zm66.52-122.52c0,14.57,2.02,27.28,6.06,38.13,4.04,10.85,9.89,19.28,17.55,25.29,7.66,6.01,16.96,9.01,27.92,9.01s20.42-3.06,28.08-9.17c7.66-6.11,13.48-14.62,17.47-25.52,3.99-10.9,5.98-23.48,5.98-37.73s-1.97-26.59-5.9-37.33c-3.94-10.74-9.73-19.14-17.39-25.21-7.66-6.06-17.07-9.09-28.24-9.09s-20.39,2.93-28,8.77c-7.61,5.85-13.43,14.15-17.47,24.89-4.04,10.74-6.06,23.4-6.06,37.97Z"/>
      <path d="m1057.62,710.8c-25.21,0-46.88-5.13-65.01-15.39-18.13-10.26-32.09-24.83-41.88-43.71-9.79-18.88-14.68-41.24-14.68-67.08s4.89-47.33,14.68-66.36c9.78-19.04,23.58-33.87,41.4-44.51,17.81-10.63,38.74-15.95,62.77-15.95,16.16,0,31.24,2.58,45.23,7.74,13.98,5.16,26.21,12.9,36.69,23.21,10.47,10.32,18.64,23.27,24.49,38.84,5.85,15.58,8.77,33.79,8.77,54.64v18.66h-206.91v-42.12h142.94c0-9.78-2.13-18.45-6.38-26-4.25-7.55-10.13-13.48-17.63-17.79s-16.19-6.46-26.08-6.46-19.44,2.37-27.36,7.1c-7.92,4.73-14.12,11.06-18.58,18.98-4.47,7.92-6.75,16.73-6.86,26.4v40.04c0,12.12,2.26,22.6,6.78,31.43,4.52,8.83,10.93,15.63,19.22,20.42,8.3,4.79,18.13,7.18,29.51,7.18,7.55,0,14.46-1.06,20.74-3.19,6.27-2.13,11.65-5.32,16.11-9.57,4.47-4.25,7.87-9.46,10.21-15.63l62.85,4.15c-3.19,15.1-9.71,28.26-19.54,39.48-9.84,11.22-22.49,19.94-37.97,26.16-15.47,6.22-33.32,9.33-53.52,9.33Z"/>
      <path d="m1261.84,710.64c-15.63,0-29.57-2.74-41.8-8.22-12.23-5.48-21.88-13.61-28.95-24.41-7.07-10.79-10.61-24.27-10.61-40.44,0-13.61,2.5-25.05,7.5-34.3,5-9.25,11.8-16.7,20.42-22.33,8.61-5.64,18.43-9.89,29.43-12.76,11.01-2.87,22.57-4.89,34.7-6.06,14.25-1.49,25.74-2.9,34.46-4.23,8.72-1.33,15.05-3.32,18.98-5.98,3.93-2.66,5.9-6.59,5.9-11.8v-.96c0-10.1-3.17-17.92-9.49-23.45-6.33-5.53-15.29-8.29-26.88-8.29-12.23,0-21.96,2.69-29.19,8.06-7.23,5.37-12.02,12.1-14.36,20.18l-62.85-5.11c3.19-14.89,9.46-27.78,18.82-38.69,9.36-10.9,21.46-19.3,36.29-25.21s32.04-8.85,51.61-8.85c13.61,0,26.67,1.59,39.16,4.79,12.5,3.19,23.61,8.14,33.34,14.84,9.73,6.7,17.41,15.29,23.05,25.76,5.64,10.48,8.46,23,8.46,37.57v165.27h-64.45v-33.98h-1.92c-3.94,7.66-9.2,14.38-15.79,20.18-6.6,5.8-14.52,10.32-23.77,13.56s-19.94,4.87-32.06,4.87Zm19.46-46.9c10,0,18.82-1.99,26.48-5.98s13.67-9.38,18.03-16.19c4.36-6.8,6.54-14.52,6.54-23.13v-26c-2.13,1.38-5.03,2.63-8.69,3.75-3.67,1.12-7.79,2.13-12.36,3.03-4.57.91-9.15,1.7-13.72,2.39-4.57.69-8.72,1.3-12.44,1.83-7.98,1.17-14.94,3.03-20.9,5.58-5.96,2.55-10.58,5.98-13.88,10.29-3.3,4.31-4.95,9.65-4.95,16.03,0,9.25,3.38,16.3,10.13,21.14,6.75,4.84,15.34,7.26,25.76,7.26Z"/>
      <path d="m1430.17,706.01v-245.03h65.88v42.75h2.55c4.47-15.21,11.96-26.72,22.49-34.54,10.53-7.82,22.65-11.73,36.37-11.73,3.4,0,7.07.21,11.01.64,3.93.43,7.39,1.01,10.37,1.75v60.3c-3.19-.96-7.6-1.81-13.24-2.55-5.64-.74-10.8-1.12-15.47-1.12-10,0-18.9,2.15-26.72,6.46-7.82,4.31-13.99,10.29-18.5,17.95-4.52,7.66-6.78,16.49-6.78,26.48v138.63h-67.96Z"/>
      <path d="m1625.46,429.39c-10.11,0-18.75-3.38-25.92-10.13-7.18-6.75-10.77-14.86-10.77-24.33s3.59-17.41,10.77-24.17c7.18-6.75,15.82-10.13,25.92-10.13s18.74,3.38,25.92,10.13c7.18,6.75,10.77,14.81,10.77,24.17s-3.59,17.58-10.77,24.33c-7.18,6.75-15.82,10.13-25.92,10.13Zm-34.14,276.62v-245.03h67.96v245.03h-67.96Z"/>
      <path d="m1760.92,710.64c-15.63,0-29.57-2.74-41.8-8.22-12.23-5.48-21.88-13.61-28.95-24.41-7.07-10.79-10.61-24.27-10.61-40.44,0-13.61,2.5-25.05,7.5-34.3,5-9.25,11.8-16.7,20.42-22.33,8.61-5.64,18.43-9.89,29.43-12.76,11.01-2.87,22.57-4.89,34.7-6.06,14.25-1.49,25.74-2.9,34.46-4.23,8.72-1.33,15.05-3.32,18.98-5.98,3.93-2.66,5.9-6.59,5.9-11.8v-.96c0-10.1-3.17-17.92-9.49-23.45-6.33-5.53-15.29-8.29-26.88-8.29-12.23,0-21.96,2.69-29.19,8.06-7.23,5.37-12.02,12.1-14.36,20.18l-62.85-5.11c3.19-14.89,9.46-27.78,18.82-38.69,9.36-10.9,21.46-19.3,36.29-25.21s32.04-8.85,51.61-8.85c13.61,0,26.67,1.59,39.16,4.79,12.5,3.19,23.61,8.14,33.34,14.84,9.73,6.7,17.41,15.29,23.05,25.76,5.64,10.48,8.46,23,8.46,37.57v165.27h-64.45v-33.98h-1.92c-3.94,7.66-9.2,14.38-15.79,20.18-6.6,5.8-14.52,10.32-23.77,13.56s-19.94,4.87-32.06,4.87Zm19.46-46.9c10,0,18.82-1.99,26.48-5.98s13.67-9.38,18.03-16.19c4.36-6.8,6.54-14.52,6.54-23.13v-26c-2.13,1.38-5.03,2.63-8.69,3.75-3.67,1.12-7.79,2.13-12.36,3.03-4.57.91-9.15,1.7-13.72,2.39-4.57.69-8.72,1.3-12.44,1.83-7.98,1.17-14.94,3.03-20.9,5.58-5.96,2.55-10.58,5.98-13.88,10.29-3.3,4.31-4.95,9.65-4.95,16.03,0,9.25,3.38,16.3,10.13,21.14,6.75,4.84,15.34,7.26,25.76,7.26Z"/>
    </g>
  </g>
</svg>