<?xml version="1.0" encoding="UTF-8"?>
<svg id="Camada_2" data-name="Camada 2" xmlns="http://www.w3.org/2000/svg" viewBox="0 0 466.58 1028.32">
  <g id="Camada_1-2" data-name="Camada 1">
    <g>
      <path d="m224.08,250.76c-3.28,0-5.94.11-8.59-.02-7.78-.39-15-5.87-16.8-12.63-2.17-8.15.6-17.36,7.68-21.11,4.78-2.53,10.56-4.43,15.91-4.45,74.03-.32,148.07-.32,222.1-.26,11.49,0,21.18,9.46,21.17,19.95-.02,10.65-8.67,18.3-21.11,18.31-61.69.1-123.39.12-185.08.18-2.88,0-5.76,0-8.96,0v81.31c14.1-9.72,27.21-18.78,40.33-27.8,14.57-10.02,29.04-20.2,43.84-29.86,3.35-2.19,7.87-3.53,11.88-3.59,27.62-.41,55.25-.22,82.88-.62,6.72-.1,8.51,2.06,8.51,8.79-.09,178.91.06,357.82.16,536.73,0,2.92,0,5.84,0,7.17,7.36,2.01,14.17,2.66,19.71,5.66,8.06,4.37,10.46,13.29,7.85,22.35-2.62,9.12-10.08,14.73-20.5,14.81-30.31.21-60.62.33-90.93.32-45.33-.01-90.66-.11-135.99-.28-9.85-.04-17.22-5.3-19.68-13.47-2.75-9.13.17-19.52,8.23-24,4.86-2.7,10.97-3.15,17.39-4.84V250.76Zm188.68,55.58c-3.19,2.23-5.13,3.61-7.09,4.94-49.39,33.53-98.75,67.1-148.22,100.51-5.36,3.62-7.85,7.66-7.63,14.42.52,15.81.15,31.64.14,47.46,0,11.93,0,23.86,0,36.44,2.06-.68,2.86-.76,3.44-1.15,51.94-35.54,103.88-71.07,155.7-106.78,1.8-1.24,3.48-4.12,3.5-6.25.23-29.48.15-58.96.15-89.59Zm-162.75,381.76c2.67-1.47,3.88-2.01,4.94-2.75,50.51-34.71,100.94-69.55,151.63-104.01,4.97-3.38,6.38-6.76,6.3-12.35-.29-22.24-.14-44.49-.15-66.74,0-5.99,0-11.99,0-18.73-16.52,11.37-31.84,21.97-47.22,32.48-36.44,24.9-72.96,49.67-109.26,74.77-2.85,1.97-5.92,6.07-5.97,9.23-.46,28.91-.27,57.82-.27,88.09Zm-.02,137.17c20.15,0,39.17.08,58.18-.11,2.21-.02,4.69-1.06,6.55-2.35,31.32-21.56,62.61-43.18,93.73-65.03,2.15-1.51,4.08-5.03,4.1-7.63.25-28.42.09-56.84.02-85.27,0-.91-.28-1.81-.5-3.15-12.35,8.42-24.03,16.38-35.7,24.33-40.48,27.58-80.98,55.13-121.37,82.83-2.14,1.47-4.74,4.25-4.8,6.48-.41,16.3-.22,32.62-.22,49.89Z"/>
      <path d="m190.12,143.74c6.63,15.86,13.07,31.26,19.52,46.67-18.43,4.08-32.3,15.09-35.54,36.01-2.75,17.75,1.6,33.33,16.62,44.93,2.23,1.72,4.15,5.42,4.15,8.21.16,148.02.1,296.05.06,444.08,0,6.38,0,12.77,0,21.19-38.61-18.02-71.59-40.5-99.75-69.88-48.76-50.89-80.52-110.62-91.29-180.56C-21.64,328.63,83.06,190.61,190.12,143.74Z"/>
      <path d="m330.67,192.65c-23.06,0-46.12-.03-69.18.02-5.58.01-9.54-.86-14.03-5.96-15.54-17.63-25.82-37.15-28.65-60.62-4.41-36.48,5.76-68.28,32.44-93.35,50.18-47.16,123.89-42.72,169.1,9.2,34.55,39.68,32.64,104-3.27,142.77-6.07,6.55-11.63,8.15-19.64,8.02-22.25-.37-44.51-.13-66.76-.13v.06Zm7.34-161.86c-30.41-11.01-69.9,6.27-84.26,36.57-18.82,39.73-10.88,78.95,19.44,101.26-38.14-59.4-1.96-129.38,64.82-137.83Z"/>
      <path d="m441.76,889.06c-4.44,6.51-9.36,7.16-15.25,6.87-36.06-1.78-65.23,20-72.64,54.46-1.39,6.44-1,13.32-1.03,19.99-.06,11.53.36,23.06.26,34.58-.11,12.89-9.53,22.34-22.78,23.29-11.51.83-21.82-7.21-23.77-19.38-1.22-7.62-1.27-15.42-1.84-23.01-7.7-1.92-15.27-3.28-22.5-5.68-31.9-10.59-51.15-36.43-53.27-69.95-.44-6.99-2.94-13.84-4.58-21.17h217.4Zm-143.86,70c-17.61-14.64-17.74-33.23-17.23-52.32h-26.96c-3.32,23.98,15.78,47.6,44.19,52.32Z"/>
    </g>
  </g>
</svg>